<?xml version="1.0" encoding="UTF-8" standalone="no"?>
<!DOCTYPE svg PUBLIC "-//W3C//DTD SVG 1.1//EN" "http://www.w3.org/Graphics/SVG/1.1/DTD/svg11.dtd">
<svg width="100%" height="100%" viewBox="0 0 20 20" version="1.1" xmlns="http://www.w3.org/2000/svg" xmlns:xlink="http://www.w3.org/1999/xlink" xml:space="preserve" xmlns:serif="http://www.serif.com/" style="fill-rule:evenodd;clip-rule:evenodd;stroke-linejoin:round;stroke-miterlimit:2;">
    <path d="M15,3.733C13.674,2.407 11.875,1.662 10,1.662C8.125,1.662 6.326,2.407 5,3.733C3.674,5.059 2.929,6.858 2.929,8.733C2.929,10.609 3.674,12.407 5,13.733L9.392,18.133C9.469,18.211 9.561,18.273 9.663,18.316C9.764,18.358 9.873,18.38 9.983,18.38C10.093,18.38 10.202,18.358 10.304,18.316C10.405,18.273 10.498,18.211 10.575,18.133L15,13.692C16.321,12.371 17.062,10.58 17.062,8.713C17.062,6.845 16.321,5.054 15,3.733ZM13.808,12.5L10,16.325L6.192,12.5C5.439,11.747 4.927,10.788 4.72,9.744C4.512,8.699 4.619,7.617 5.027,6.634C5.435,5.651 6.125,4.81 7.01,4.219C7.895,3.627 8.936,3.312 10,3.312C11.065,3.312 12.105,3.627 12.99,4.219C13.876,4.81 14.566,5.651 14.973,6.634C15.381,7.617 15.488,8.699 15.28,9.744C15.073,10.788 14.561,11.747 13.808,12.5ZM7.5,6.175C6.827,6.85 6.45,7.764 6.45,8.717C6.45,9.67 6.827,10.584 7.5,11.258C8,11.759 8.636,12.101 9.33,12.241C10.023,12.381 10.743,12.314 11.398,12.047C12.053,11.78 12.614,11.325 13.012,10.74C13.41,10.155 13.626,9.466 13.633,8.758C13.637,8.286 13.546,7.818 13.366,7.381C13.185,6.945 12.919,6.549 12.583,6.217C12.253,5.879 11.859,5.61 11.425,5.425C10.99,5.239 10.523,5.142 10.05,5.138C9.578,5.134 9.109,5.224 8.672,5.402C8.234,5.58 7.836,5.843 7.5,6.175ZM11.408,10.075C11.093,10.396 10.675,10.597 10.228,10.644C9.78,10.691 9.33,10.581 8.955,10.332C8.579,10.084 8.302,9.714 8.169,9.283C8.037,8.853 8.058,8.391 8.229,7.974C8.4,7.558 8.711,7.214 9.107,7.001C9.504,6.789 9.962,6.72 10.403,6.808C10.845,6.896 11.242,7.134 11.527,7.482C11.812,7.83 11.968,8.267 11.967,8.717C11.955,9.231 11.739,9.72 11.367,10.075L11.408,10.075Z" style="fill:rgb(31,134,29);fill-rule:nonzero;"/>
</svg>
