<?xml version="1.0" encoding="UTF-8" standalone="no"?>
<!DOCTYPE svg PUBLIC "-//W3C//DTD SVG 1.1//EN" "http://www.w3.org/Graphics/SVG/1.1/DTD/svg11.dtd">
<svg width="100%" height="100%" viewBox="0 0 20 20" version="1.1" xmlns="http://www.w3.org/2000/svg" xmlns:xlink="http://www.w3.org/1999/xlink" xml:space="preserve" xmlns:serif="http://www.serif.com/" style="fill-rule:evenodd;clip-rule:evenodd;stroke-linejoin:round;stroke-miterlimit:2;">
    <path d="M9.167,1.667C7.519,1.667 5.907,2.155 4.537,3.071C3.167,3.987 2.098,5.288 1.468,6.811C0.837,8.334 0.672,10.009 0.994,11.626C1.315,13.242 2.109,14.727 3.274,15.893C4.44,17.058 5.924,17.852 7.541,18.173C9.157,18.495 10.833,18.33 12.356,17.699C13.879,17.068 15.18,16 16.096,14.63C17.011,13.259 17.5,11.648 17.5,10C17.5,8.906 17.285,7.822 16.866,6.811C16.447,5.8 15.833,4.881 15.059,4.107C14.285,3.334 13.367,2.72 12.356,2.301C11.345,1.882 10.261,1.667 9.167,1.667ZM9.167,16.667C7.848,16.667 6.559,16.276 5.463,15.543C4.367,14.811 3.512,13.769 3.008,12.551C2.503,11.333 2.371,9.993 2.628,8.699C2.885,7.406 3.52,6.218 4.453,5.286C5.385,4.354 6.573,3.719 7.866,3.461C9.159,3.204 10.5,3.336 11.718,3.841C12.936,4.345 13.977,5.2 14.71,6.296C15.442,7.393 15.833,8.681 15.833,10C15.833,11.768 15.131,13.464 13.881,14.714C12.631,15.964 10.935,16.667 9.167,16.667ZM10,9.942L10,5.833C10,5.612 9.912,5.4 9.756,5.244C9.6,5.088 9.388,5 9.167,5C8.946,5 8.734,5.088 8.577,5.244C8.421,5.4 8.333,5.612 8.333,5.833L8.333,10.092C8.313,10.261 8.345,10.433 8.425,10.583L9.675,12.75C9.786,12.942 9.968,13.083 10.182,13.141C10.396,13.198 10.624,13.169 10.817,13.058C11.009,12.948 11.15,12.766 11.207,12.551C11.265,12.337 11.236,12.109 11.125,11.917L10,9.942Z" style="fill:rgb(31,134,29);fill-rule:nonzero;"/>
</svg>
